#!OML:ASF I:\Random Stuff\random\construction\7_22_03\Session 2\subj1.ASF
:FULLY-SPECIFIED
:DEGREES
543
root -8.4559 17.6731 -5.69254 -319.378 111.535 -334.979
lowerback 11.7584 2.21469 -7.54152
upperback 6.16821 2.85393 -8.23175
thorax 0.0385486 1.70737 -4.7513
lowerneck -21.2351 -3.85475 -4.18393
upperneck 45.2017 -4.51925 7.97697
head 23.737 -0.656244 4.52018
rclavicle 4.13472e-014 -3.18055e-014
rhumerus -0.865308 67.0691 -51.2319
rradius 80.0233
rwrist 3.10519
rhand -11.8063 -0.195675
rfingers 7.12502
rthumb 14.2437 -29.6872
lclavicle 4.13472e-014 -3.18055e-014
lhumerus 43.7181 -73.0698 47.9719
lradius 39.3985
lwrist -10.6407
lhand -15.7741 56.7312
lfingers 7.12502
lthumb 10.4181 86.453
rfemur -11.7623 -0.806229 22.5863
rtibia 2.14687e-014
rfoot -2.05703 -9.96141
rtoes -24.6458
lfemur -36.0275 -10.849 -2.23717
ltibia 33.5446
lfoot -14.4346 0.738053
ltoes -34.8505
544
root -8.45676 17.6735 -5.69266 -319.38 111.525 -334.988
lowerback 11.7412 2.18928 -7.57787
upperback 6.16562 2.81616 -8.2044
thorax 0.0409221 1.686 -4.69614
lowerneck -21.2778 -3.79134 -4.19847
upperneck 45.2186 -4.39295 7.95173
head 23.7482 -0.616954 4.5433
rclavicle 1.59028e-014 -1.59028e-014
rhumerus -0.428329 67.5247 -50.5125
rradius 80.0771
rwrist 5.32523
rhand -12.5053 0.990158
rfingers 7.12502
rthumb 13.57 -28.5476
lclavicle 1.59028e-014 -1.59028e-014
lhumerus 43.2035 -72.9433 48.4999
lradius 39.4048
lwrist -10.6049
lhand -15.7781 56.6777
lfingers 7.12502
lthumb 10.4142 86.3997
rfemur -11.7727 -0.798802 22.5799
rtibia 1.03368e-014
rfoot -2.00705 -9.96314
rtoes -24.8784
lfemur -36.0281 -10.8267 -2.25072
ltibia 33.5331
lfoot -14.4266 0.729598
ltoes -34.8123
545
root -8.45914 17.6734 -5.6926 -319.306 111.489 -334.94
lowerback 11.7184 2.17821 -7.60796
upperback 6.15085 2.79588 -8.17765
thorax 0.0341057 1.67314 -4.64729
lowerneck -21.3043 -3.78311 -4.28457
upperneck 45.2447 -4.33675 7.95686
head 23.7822 -0.613461 4.58284
rclavicle 1.27222e-014 -7.95139e-014
rhumerus 0.103651 67.9622 -49.6398
rradius 80.1699
rwrist 7.72985
rhand -12.736 2.33845
rfingers 7.12502
rthumb 13.3477 -27.214
lclavicle 1.27222e-014 -7.95139e-014
lhumerus 42.6657 -72.8096 49.0835
lradius 39.4097
lwrist -10.6255
lhand -15.7378 56.7006
lfingers 7.12502
lthumb 10.4531 86.4208
rfemur -11.8257 -0.7561 22.5724
rtibia 7.95139e-015
rfoot -1.97338 -9.96429
rtoes -25.1492
lfemur -36.0405 -10.8241 -2.23117
ltibia 33.5269
lfoot -14.4313 0.73374
ltoes -34.4729
546
root -8.46046 17.6738 -5.69229 -319.246 111.419 -334.879
lowerback 11.701 2.1655 -7.68757
upperback 6.14427 2.76919 -8.14049
thorax 0.0308357 1.65579 -4.55907
lowerneck -21.317 -3.75139 -4.35169
upperneck 45.2629 -4.2319 7.9145
head 23.7874 -0.595153 4.60004
rclavicle 2.54444e-014 4.13472e-014
rhumerus 1.01161 68.5112 -48.4106
rradius 80.2459
rwrist 10.6913
rhand -12.8573 3.83994
rfingers 7.12502
rthumb 13.2308 -25.7202
lclavicle 2.54444e-014 4.13472e-014
lhumerus 42.0576 -72.6327 49.7326
lradius 39.4054
lwrist -10.669
lhand -15.6884 56.6813
lfingers 7.12502
lthumb 10.5007 86.399
rfemur -11.8561 -0.687833 22.5432
rtibia 1.59028e-015
rfoot -1.95093 -9.9595
rtoes -25.0216
lfemur -36.0115 -10.8144 -2.2419
ltibia 33.5229
lfoot -14.4501 0.745854
ltoes -34.239
547
root -8.45979 17.6733 -5.68977 -319.129 111.386 -334.715
lowerback 11.6757 2.14711 -7.76678
upperback 6.16461 2.73931 -8.07604
thorax 0.0589358 1.63554 -4.44025
lowerneck -21.3098 -3.67755 -4.36173
upperneck 45.2403 -4.0719 7.82339
head 23.7248 -0.552122 4.58237
rclavicle 4.6118e-014 -1.27222e-013
rhumerus 2.05781 69.1248 -47.0325
rradius 80.2901
rwrist 14.409
rhand -12.8517 4.94729
rfingers 7.12502
rthumb 13.2362 -24.6125
lclavicle 4.6118e-014 -1.27222e-013
lhumerus 41.5172 -72.4315 50.302
lradius 39.3789
lwrist -10.6664
lhand -15.6958 56.6705
lfingers 7.12502
lthumb 10.4936 86.3886
rfemur -11.8286 -0.620705 22.5793
rtibia 7.15625e-015
rfoot -1.93123 -9.94749
rtoes -24.6481
lfemur -35.9446 -10.7478 -2.22667
ltibia 33.5106
lfoot -14.4511 0.757321
ltoes -34.4902
548
root -8.45998 17.6728 -5.688 -319.021 111.363 -334.592
lowerback 11.6256 2.12705 -7.82632
upperback 6.18286 2.71254 -8.02248
thorax 0.0997307 1.61738 -4.34323
lowerneck -21.3049 -3.61017 -4.37882
upperneck 45.195 -3.92811 7.74076
head 23.6459 -0.515165 4.56386
rclavicle 9.54166e-014 -4.45278e-014
rhumerus 2.99244 69.6222 -45.7847
rradius 80.2888
rwrist 18.5633
rhand -12.4839 5.55826
rfingers 7.12502
rthumb 13.5907 -23.9781
lclavicle 9.54166e-014 -4.45278e-014
lhumerus 41.0892 -72.2633 50.7612
lradius 39.3486
lwrist -10.6639
lhand -15.806 56.6956
lfingers 7.12502
lthumb 10.3873 86.419
rfemur -11.8255 -0.569987 22.6097
rtibia 5.24792e-014
rfoot -1.92829 -9.94829
rtoes -24.7053
lfemur -35.9097 -10.7164 -2.20227
ltibia 33.4861
lfoot -14.4284 0.83553
ltoes -34.9258
549
root -8.46354 17.674 -5.69024 -319.123 111.333 -334.75
lowerback 11.5767 2.0796 -7.89026
upperback 6.17509 2.64773 -8.01243
thorax 0.114107 1.58249 -4.28682
lowerneck -21.3069 -3.54384 -4.38998
upperneck 45.1688 -3.7903 7.67288
head 23.5914 -0.476936 4.55505
rclavicle 1.11319e-014 1.27222e-014
rhumerus 3.8828 70.0537 -44.6338
rradius 80.295
rwrist 22.2369
rhand -12.1702 5.60412
rfingers 7.12502
rthumb 13.893 -23.9118
lclavicle 1.11319e-014 1.27222e-014
lhumerus 40.7006 -72.1356 51.1412
lradius 39.3557
lwrist -10.6995
lhand -15.7636 56.8367
lfingers 7.12502
lthumb 10.4282 86.5581
rfemur -11.8942 -0.586695 22.5302
rtibia -2.54444e-014
rfoot -1.91569 -9.96327
rtoes -24.9679
lfemur -35.9564 -10.8391 -2.22879
ltibia 33.4555
lfoot -14.4055 0.952124
ltoes -34.9245
550
root -8.46852 17.6754 -5.69304 -319.211 111.336 -334.887
lowerback 11.5584 2.03452 -7.87449
upperback 6.17273 2.59125 -8.01497
thorax 0.120879 1.55443 -4.29066
lowerneck -21.317 -3.51495 -4.38993
upperneck 45.1705 -3.72486 7.63087
head 23.5824 -0.459298 4.54649
rclavicle 1.11319e-014 -6.67916e-014
rhumerus 4.74132 70.4827 -43.5209
rradius 80.3345
rwrist 24.5842
rhand -12.3714 5.15162
rfingers 7.12502
rthumb 13.6991 -24.3775
lclavicle 1.11319e-014 -6.67916e-014
lhumerus 40.4942 -72.0431 51.3411
lradius 39.3665
lwrist -10.7339
lhand -15.6417 56.9331
lfingers 7.12502
lthumb 10.5458 86.6485
rfemur -11.9647 -0.622548 22.4832
rtibia 2.06736e-014
rfoot -1.86463 -9.98061
rtoes -24.994
lfemur -36.0192 -10.9601 -2.22938
ltibia 33.4296
lfoot -14.3703 0.99871
ltoes -34.6641
551
root -8.47122 17.6743 -5.6945 -319.197 111.317 -334.838
lowerback 11.6183 2.02923 -7.81125
upperback 6.18153 2.58461 -8.0259
thorax 0.100093 1.55374 -4.33961
lowerneck -21.331 -3.5268 -4.40183
upperneck 45.1866 -3.72813 7.61159
head 23.6037 -0.465887 4.53952
rclavicle -3.02153e-014 8.5875e-014
rhumerus 5.69447 70.9142 -42.3611
rradius 80.3735
rwrist 25.5091
rhand -12.7109 4.54429
rfingers 7.12502
rthumb 13.3718 -25.0066
lclavicle -3.02153e-014 8.5875e-014
lhumerus 40.6334 -72.0456 51.1516
lradius 39.4267
lwrist -10.6686
lhand -15.7377 56.8364
lfingers 7.12502
lthumb 10.4532 86.5565
rfemur -11.9537 -0.596323 22.4855
rtibia -3.26007e-014
rfoot -1.79978 -9.98237
rtoes -25.2728
lfemur -35.9792 -10.9794 -2.22973
ltibia 33.4143
lfoot -14.3445 1.02276
ltoes -34.5846
552
root -8.47247 17.6716 -5.69513 -319.235 111.276 -334.814
lowerback 11.7016 2.02011 -7.79516
upperback 6.18432 2.56551 -8.04422
thorax 0.0590944 1.54673 -4.37026
lowerneck -21.3347 -3.51818 -4.40682
upperneck 45.1916 -3.69997 7.58413
head 23.6032 -0.460796 4.53181
rclavicle 2.22639e-014 3.18055e-014
rhumerus 6.87909 71.4143 -41.0395
rradius 80.3629
rwrist 25.7603
rhand -13.2793 4.09518
rfingers 7.12502
rthumb 12.824 -25.4909
lclavicle 2.22639e-014 3.18055e-014
lhumerus 40.7881 -72.0739 50.864
lradius 39.5473
lwrist -10.5543
lhand -15.8601 56.801
lfingers 7.12502
lthumb 10.3351 86.5271
rfemur -11.9085 -0.564876 22.452
rtibia 1.19271e-014
rfoot -1.76626 -9.96297
rtoes -25.4543
lfemur -35.9093 -11.0093 -2.26102
ltibia 33.4169
lfoot -14.3534 1.09065
ltoes -34.7643
553
root -8.47173 17.6719 -5.69233 -319.249 111.254 -334.794
lowerback 11.7197 1.99843 -7.85427
upperback 6.19041 2.52969 -8.03362
thorax 0.0527893 1.52752 -4.32259
lowerneck -21.3398 -3.47567 -4.38062
upperneck 45.1907 -3.62298 7.53535
head 23.5855 -0.434928 4.51607
rclavicle 0 3.18055e-015
rhumerus 8.20099 71.9337 -39.6135
rradius 80.2361
rwrist 26.2347
rhand -13.9996 4.08176
rfingers 7.12502
rthumb 12.1295 -25.5466
lclavicle 0 3.18055e-015
lhumerus 40.7559 -72.0283 50.8042
lradius 39.6061
lwrist -10.5046
lhand -15.853 56.8314
lfingers 7.12502
lthumb 10.342 86.5571
rfemur -11.8711 -0.543526 22.4438
rtibia 1.51076e-014
rfoot -1.78623 -9.96575
rtoes -25.0456
lfemur -35.8679 -11.007 -2.26901
ltibia 33.4321
lfoot -14.3921 1.10325
ltoes -34.8511
554
root -8.46958 17.673 -5.68701 -319.2 111.24 -334.71
lowerback 11.7204 1.9933 -7.93089
upperback 6.19951 2.51575 -8.00682
thorax 0.0583333 1.51778 -4.24947
lowerneck -21.3496 -3.42899 -4.33263
upperneck 45.2071 -3.55324 7.50747
head 23.5886 -0.404372 4.50959
rclavicle 4.92986e-014 1.52667e-013
rhumerus 9.52697 72.4238 -38.2037
rradius 80.0402
rwrist 27.2563
rhand -14.3359 4.31202
rfingers 7.12502
rthumb 11.8052 -25.3353
lclavicle 4.92986e-014 1.52667e-013
lhumerus 40.7188 -71.9813 50.8106
lradius 39.5919
lwrist -10.4975
lhand -15.855 56.7388
lfingers 7.12502
lthumb 10.3401 86.4646
rfemur -11.8278 -0.507163 22.4787
rtibia 3.65764e-014
rfoot -1.81518 -9.97346
rtoes -24.7914
lfemur -35.825 -10.9395 -2.25658
ltibia 33.4572
lfoot -14.4321 1.05965
ltoes -34.9126
555
root -8.4678 17.6734 -5.68232 -319.147 111.229 -334.615
lowerback 11.7372 2.00119 -7.97041
upperback 6.208 2.521 -7.99053
thorax 0.0563984 1.51909 -4.21139
lowerneck -21.3601 -3.40061 -4.31165
upperneck 45.2234 -3.52246 7.53084
head 23.6045 -0.386103 4.52967
rclavicle 3.18055e-014 -4.77083e-014
rhumerus 10.9461 72.9292 -36.7049
rradius 79.8416
rwrist 28.4528
rhand -14.646 4.57479
rfingers 7.12502
rthumb 11.5062 -25.0894
lclavicle 3.18055e-014 -4.77083e-014
lhumerus 40.7253 -71.9685 50.781
lradius 39.571
lwrist -10.5198
lhand -15.8756 56.6364
lfingers 7.12502
lthumb 10.3201 86.3632
rfemur -11.7776 -0.470417 22.5158
rtibia 7.15625e-015
rfoot -1.84014 -9.96728
rtoes -24.7948
lfemur -35.7831 -10.9188 -2.23216
ltibia 33.4785
lfoot -14.4743 1.08455
ltoes -35.3342
556
root -8.46643 17.6734 -5.67881 -319.054 111.236 -334.485
lowerback 11.7418 1.99709 -7.96162
upperback 6.21978 2.51655 -7.9736
thorax 0.0656733 1.51617 -4.19749
lowerneck -21.3548 -3.37325 -4.32751
upperneck 45.2228 -3.49292 7.58401
head 23.6021 -0.371595 4.57135
rclavicle -4.13472e-014 -9.54166e-015
rhumerus 12.6597 73.4515 -34.9198
rradius 79.6221
rwrist 29.1772
rhand -15.1328 4.94357
rfingers 7.12502
rthumb 11.0366 -24.7463
lclavicle -4.13472e-014 -9.54166e-015
lhumerus 40.5839 -71.8998 50.9035
lradius 39.5389
lwrist -10.6762
lhand -15.8415 56.6837
lfingers 7.12502
lthumb 10.3531 86.4088
rfemur -11.7361 -0.439772 22.5736
rtibia -3.33958e-014
rfoot -1.87123 -9.97371
rtoes -24.6287
lfemur -35.7479 -10.9184 -2.17581
ltibia 33.4907
lfoot -14.5063 1.10008
ltoes -35.5035
